<?xml version="1.0" encoding="iso-8859-1"?>
<!-- Uploaded to: SVG Repo, www.svgrepo.com, Generator: SVG Repo Mixer Tools -->
<!DOCTYPE svg PUBLIC "-//W3C//DTD SVG 1.1//EN" "http://www.w3.org/Graphics/SVG/1.1/DTD/svg11.dtd">
<svg fill="#000000" version="1.1" id="Capa_1" xmlns="http://www.w3.org/2000/svg" xmlns:xlink="http://www.w3.org/1999/xlink" 
	 width="800px" height="800px" viewBox="0 0 49.864 49.864"
	 xml:space="preserve">
<g>
	<path d="M33.541,10.691c-0.933-0.071-1.829,0.086-2.658,0.394c0.209-0.647,0.345-1.327,0.333-2.042c-0.048-2.983-2.188-5.481-5-6.1
		V1.125C26.215,0.504,25.61,0,24.863,0s-1.352,0.504-1.352,1.125v1.813c-2.894,0.629-5.047,3.234-4.999,6.307
		c0.01,0.619,0.137,1.205,0.314,1.769c-0.832-0.281-1.727-0.415-2.657-0.32c-3.43,0.35-5.98,3.427-5.686,6.859l0.01,0.104
		c0.354,3.484,3.477,6.031,6.962,5.676c1.966-0.199,3.626-1.307,4.643-2.853v1.418h1.444v1.077h-1.849v2.147h1.849v1.347h-1.561
		v1.675h1.563v0.641h-1.563v1.674h1.563v19.407h2.601v-2.087h2.102v-3.106h2.032v3.106h1.893V43.55h2.379v4.228h1.968v-6.213H26.145
		V30.458h1.74v-1.674h-1.74v-0.642h1.74V26.47h-1.74v-1.347h1.892v-2.147h-1.892v-1.077h1.188v-2.138
		c0.95,1.979,2.892,3.416,5.232,3.597c3.437,0.264,6.493-2.312,6.812-5.743l0.008-0.103C39.655,14.02,37.032,10.96,33.541,10.691z
		 M17.296,21.762c-2.618,0.267-4.965-1.647-5.23-4.265l-0.008-0.077c-0.22-2.579,1.696-4.891,4.273-5.153
		c2.617-0.266,4.964,1.647,5.23,4.265l0.007,0.078C21.79,19.188,19.874,21.5,17.296,21.762z M27.003,15.104l-0.019-0.001
		c0.007-0.003,0.016-0.005,0.022-0.008C27.006,15.097,27.004,15.1,27.003,15.104z M24.94,13.916l-0.078,0.001
		c-2.588,0-4.729-2.107-4.77-4.696c-0.042-2.631,2.064-4.806,4.695-4.848l0.078-0.001c2.589,0,4.728,2.107,4.77,4.696
		C29.677,11.699,27.572,13.874,24.94,13.916z M37.804,17.469c-0.24,2.578-2.536,4.512-5.118,4.314
		c-2.624-0.202-4.594-2.5-4.393-5.124l0.007-0.078c0.24-2.578,2.536-4.512,5.118-4.314c2.624,0.202,4.593,2.5,4.393,5.125
		L37.804,17.469z"/>
</g>
</svg>